<?xml version="1.0" encoding="UTF-8" standalone="no"?><!DOCTYPE svg PUBLIC "-//W3C//DTD SVG 1.1//EN"
        "http://www.w3.org/Graphics/SVG/1.1/DTD/svg11.dtd">
<svg width="100%" height="100%" viewBox="0 0 800 800" version="1.1" xmlns="http://www.w3.org/2000/svg"
     xmlns:xlink="http://www.w3.org/1999/xlink" xml:space="preserve" xmlns:serif="http://www.serif.com/"
     style="fill-rule:evenodd;clip-rule:evenodd;stroke-linejoin:round;stroke-miterlimit:2;"><g id="图层-1" serif:id="图层 1"><path d="M401.707,473.307c94.002,-5.701 137.245,-86.295 129.826,-146.303c-7.895,-63.854 -62.575,-114.337 -126.275,-115.348c-68.261,-1.085 -123.799,45.528 -133.317,113.681c-5.35,38.311 5.133,73.012 30.745,102.537c25.254,29.116 61.832,43.384 101.449,45.538c-5.224,5.274 -14.578,6.108 -19.239,8.017c-26.611,10.898 -76.645,30.305 -103.759,40.772c-8.73,3.371 -17.991,-3.405 -17.439,-12.748c1.803,-30.515 5.322,-88.582 7.768,-119.759c0.509,-6.48 -1.278,-11.169 -5.384,-16.002c-26.393,-31.063 -52.547,-62.327 -78.766,-93.538l-0.113,-0.134c-5.741,-6.837 -2.36,-17.322 6.292,-19.52c12.257,-3.114 24.088,-6.117 35.938,-9.046c28.062,-6.935 56.128,-13.854 84.247,-20.552c5.907,-1.407 9.535,-4.678 12.67,-9.762c16.19,-26.258 46.44,-73.458 63.111,-99.382c5.529,-8.597 18.068,-8.62 23.629,-0.044c16.748,25.829 47.074,72.818 63.056,98.921c3.793,6.194 8.549,9.099 15.326,10.741c29.366,7.118 82.518,20.658 112.962,28.448c10.714,2.742 14.885,15.71 7.789,24.193c-8.883,10.62 -19.683,23.526 -26.747,31.955c-16.47,19.651 -32.831,39.397 -49.545,58.837c-3.779,4.394 -4.927,8.691 -4.496,14.319c2.262,29.55 5.468,83.777 7.298,115.626c0.678,11.793 -11.063,20.305 -22.058,15.986c-28.699,-11.275 -76.655,-30.181 -102.789,-40.854c-3.235,-1.321 -9.052,-2.696 -12.179,-6.579" style="fill:#fcd41f;fill-rule:nonzero;"/><path
        d="M199.142,556.941l0,35.552c0,2.895 2.353,5.248 5.247,5.248l12.936,0l0,-35.552c0,-2.895 -2.352,-5.248 -5.247,-5.248l-12.936,0Zm-42.879,41.704c16.012,-8.413 17.64,-21.62 17.731,-41.704l-12.484,0c-2.895,0 -5.247,2.353 -5.247,5.248l0,36.456Zm55.815,25.238c2.895,0 5.247,-2.352 5.247,-5.246l0,-14.746l-12.936,0c-6.242,0 -11.398,-5.155 -11.398,-11.398l0,-35.552l-12.846,0c-0.181,23.521 -2.261,38.719 -23.882,48.488l0,13.208c0,2.894 2.352,5.246 5.247,5.246l50.568,0Zm-50.568,6.153c-6.242,0 -11.398,-5.157 -11.398,-11.399l0,-56.448c0,-6.242 5.156,-11.398 11.398,-11.398l50.568,0c6.243,0 11.398,5.156 11.398,11.398l0,56.448c0,6.242 -5.155,11.399 -11.398,11.399l-50.568,0Z"
        style="fill:#0b327f;fill-rule:nonzero;"/><path
        d="M301.352,588.785l27.32,0l0,-17.369l-14.022,0c-3.527,6.875 -7.961,12.393 -13.298,17.369m-3.618,-40.437l68.48,0l0,6.151l-31.391,0l0,10.765l36.366,0l0,6.152l-14.745,0l16.645,19.449l-4.613,3.981l-20.083,-23.43l-13.57,0l0,17.369l22.887,0c-3.709,6.784 -7.417,12.755 -11.67,17.82l26.868,0l0,6.242l-31.661,0l0,6.242c0,6.243 -5.157,11.398 -11.399,11.398l-12.846,0l0,-6.15l12.846,0c2.895,0 5.247,-2.262 5.247,-5.248l0,-6.242l-44.598,0l0,-6.242l47.041,0c4.07,-4.071 7.236,-8.049 9.588,-11.67l-46.136,0l0,-5.789c-2.261,2.081 -4.703,4.071 -7.326,6.062l-3.619,-4.795c7.418,-5.608 13.026,-11.399 17.64,-18.997l-15.288,0l0,-6.152l36.275,0l0,-10.765l-30.938,0l0,-6.151Z"
        style="fill:#0b327f;fill-rule:nonzero;"/><path
        d="M507.322,604.977l9.408,22.254l-5.608,2.352l-9.409,-22.343l5.609,-2.263Zm-22.615,14.295l-6.152,0l0,-12.666l6.152,0l0,12.666Zm20.262,-37l0,-2.532l-26.595,0l0,6.06l23.068,0c1.99,0 3.527,-1.629 3.527,-3.528m-26.595,-14.292l0,5.607l26.595,0l0,-1.99c0,-1.989 -1.537,-3.617 -3.527,-3.617l-23.068,0Zm19.811,62.237l-28.948,0c-6.694,0 -9.77,-4.342 -9.77,-9.77l0,-13.841l6.152,0l0,13.841c0,1.991 1.085,3.619 3.618,3.619l28.948,0l0,6.151Zm-25.962,-44.417l0,-6.06l-26.597,0l0,2.532c0,1.899 1.629,3.528 3.619,3.528l22.978,0Zm-26.597,-12.213l26.597,0l0,-5.607l-22.978,0c-1.99,0 -3.619,1.628 -3.619,3.617l0,1.99Zm32.748,-26.142l0,4.161l35.732,0l0,6.15l-35.732,0l0,4.072l23.068,0c5.338,0 9.68,4.433 9.68,9.769l0,10.675c0,5.429 -4.342,9.68 -9.68,9.68l-23.068,0l0,4.794l26.685,0c0.815,0 1.721,-0.181 2.534,-0.905c0.723,-0.722 1.176,-1.629 1.086,-2.533l0,-1.899l6.151,0l0,1.808c0,2.624 -1.085,4.976 -2.804,6.877c-1.899,1.809 -4.252,2.804 -6.967,2.804l-69.112,0l0,-6.152l36.276,0l0,-4.794l-22.978,0c-5.336,0 -9.77,-4.251 -9.77,-9.68l0,-10.675c0,-5.336 4.434,-9.769 9.77,-9.769l22.978,0l0,-4.072l-35.734,0l0,-6.15l35.734,0l0,-4.161l6.151,0Zm-28.585,59.161c-1.538,8.775 -4.705,16.193 -8.776,22.888l-5.156,-3.167c3.708,-5.97 6.604,-12.755 7.871,-20.716l6.061,0.995Z"
        style="fill:#0b327f;fill-rule:nonzero;"/><path
        d="M650.964,572.502c0,-0.181 -0.09,-0.271 -0.271,-0.271l-60.428,0c-0.182,0 -0.273,0.09 -0.273,0.271l0,7.237c0,0.09 0.091,0.18 0.273,0.18l60.428,0c0.181,0 0.271,-0.09 0.271,-0.18l0,-7.237Zm6.151,7.237c0,3.437 -2.894,6.332 -6.422,6.332l-60.428,0c-3.53,0 -6.423,-2.895 -6.423,-6.332l0,-7.237c0,-3.528 2.893,-6.424 6.423,-6.424l60.428,0c3.528,0 6.422,2.896 6.422,6.424l0,7.237Zm-32.475,-31.843l0,5.428l37.36,0l0,6.151l-81.325,0l0,-6.151l37.724,0l0,-5.428l6.241,0Zm-44.599,58.801l48.76,0c4.614,-2.352 8.593,-4.885 12.122,-7.871l-56.087,0l0,-6.15l70.65,0c-5.156,5.697 -10.221,10.402 -15.197,14.021l21.169,0l0,6.151l-30.848,0l-0.724,0.361l0,5.88c0,5.791 -4.433,10.404 -9.769,10.404l-15.199,0l0,-6.151l15.199,0c1.99,0 3.528,-1.901 3.528,-4.253l0,-6.241l-43.604,0l0,-6.151Z"
        style="fill:#0b327f;fill-rule:nonzero;"/><path
        d="M169.243,651.39c-2.789,-0.413 -5.681,-0.775 -8.16,-0.775c-4.7,0 -8.522,1.188 -8.728,5.578c-0.155,3.563 3.822,5.578 7.902,7.488c3.976,1.962 7.952,3.874 9.502,7.592c0.619,1.499 0.982,2.943 0.982,4.339c0,4.958 -3.771,8.779 -12.653,8.779c-2.273,0 -5.114,-0.31 -8.263,-0.93l0.671,-3.408c2.892,0.517 5.422,0.826 7.592,0.826c6.403,0 9.14,-2.325 9.14,-5.267c0,-0.982 -0.258,-1.963 -0.671,-3.048c-1.033,-2.375 -4.545,-4.132 -7.798,-5.732c-4.803,-2.377 -9.813,-5.578 -9.916,-10.845c0.464,-6.766 5.784,-8.884 12.24,-8.884c2.943,0 5.939,0.361 8.727,0.775l-0.567,3.512Z"
        style="fill:#0b327f;fill-rule:nonzero;"/><rect x="198.579" y="647.619" width="3.512" height="36.255"
                                                       style="fill:#0b327f;"/><path
        d="M226.573,681.24l0.826,0c2.945,0 5.681,-0.053 5.681,-4.08l0,-28.715l3.564,0l0,28.715c0,7.54 -4.494,7.592 -9.245,7.592l-0.826,0l0,-3.512Z"
        style="fill:#0b327f;fill-rule:nonzero;"/><rect x="265.774" y="647.619" width="3.511" height="36.255"
                                                       style="fill:#0b327f;"/><path
        d="M323.153,647.619l0,36.255l-3.512,0l0,-17.301l-18.437,0l0,17.301l-3.512,0l0,-36.255l3.512,0l0,15.442l18.437,0l0,-15.442l3.512,0Z"
        style="fill:#0b327f;fill-rule:nonzero;"/><path
        d="M375.317,647.052l0,25.201c0.413,7.593 -5.629,11.414 -11.826,11.414c-6.094,0 -12.085,-3.718 -12.085,-11.154l0,-25.616l3.512,0l0,25.616c0,5.061 4.235,7.643 8.573,7.643c4.131,0 8.212,-2.945 8.315,-7.695c-0.052,-0.93 -0.052,-3.203 -0.052,-25.409l3.563,0Z"
        style="fill:#0b327f;fill-rule:nonzero;"/><rect x="403.57" y="647.619" width="3.512" height="36.255"
                                                       style="fill:#0b327f;"/><path
        d="M459.298,649.324l-10.692,16.009l11.052,16.579l-2.943,1.858l-10.175,-15.286l-10.175,15.286l-2.942,-1.858l11.001,-16.579l-10.64,-16.009l2.945,-1.86l9.811,14.718l9.814,-14.718l2.944,1.86Z"
        style="fill:#0b327f;fill-rule:nonzero;"/><rect x="486.207" y="647.619" width="3.512" height="36.255"
                                                       style="fill:#0b327f;"/><path
        d="M525.047,668.122l10.999,0l-5.474,-14.925c-1.807,5.009 -3.667,9.967 -5.525,14.925m-9.143,14.461l13.17,-35.635l2.995,0l13.067,35.79l-3.306,1.238l-4.493,-12.291l-13.633,0l-4.494,12.137l-3.306,-1.239Z"
        style="fill:#0b327f;fill-rule:nonzero;"/><path
        d="M596.939,647.154l0,36.41l-3.668,0l-18.385,-29.282c0,9.657 0.052,19.418 0.052,29.076l-3.563,0l0,-36.358l3.046,0l18.954,30.211c0,-10.018 0.052,-20.037 0.052,-30.057l3.511,0Z"
        style="fill:#0b327f;fill-rule:nonzero;"/><path
        d="M647.346,651.184c-0.774,-0.052 -1.601,-0.052 -2.375,-0.155c-2.066,-0.206 -4.286,-0.465 -6.198,-0.465c-4.131,0 -8.004,1.085 -9.554,4.853c-0.981,2.842 -1.549,6.508 -1.549,10.226c0,3.926 0.568,7.8 1.549,10.536l0,-0.051c1.291,3.511 5.165,4.699 9.348,4.699c1.755,0 3.615,-0.206 5.319,-0.568c0,-5.01 0.052,-9.761 0.052,-14.822l3.512,0l-0.052,17.663c-3.201,0.723 -6.301,1.24 -8.831,1.24c-5.474,0 -10.742,-1.706 -12.654,-6.973c-1.084,-3.046 -1.754,-7.384 -1.754,-11.724c0,-4.183 0.619,-8.314 1.754,-11.464c2.169,-5.733 7.335,-7.127 12.86,-7.127c2.324,0 4.493,0.257 6.507,0.465l2.221,0.155l-0.155,3.512Z"
        style="fill:#0b327f;fill-rule:nonzero;"/><path
        d="M465.752,364.607c0.001,0.01 -0.005,0.016 -0.005,0.026c0.008,-0.003 0.016,-0.005 0.024,-0.007l-0.019,-0.019Z"
        style="fill:#6db04d;fill-rule:nonzero;"/><path
        d="M416.852,222.617c2.56,2.489 4.694,5.445 5.335,8.958c2.592,14.216 -1.953,21.966 -15.411,27.712c2.045,0.534 4.087,2.182 6.61,1.568c7.518,2.364 14.246,6.151 20.668,10.491c3.05,2.061 5.696,4.667 7.864,7.642c1.008,1.383 8.275,11.274 8.908,15.8c-4.198,-0.495 -8.289,-2.229 -12.628,-1.079c-2.745,-5.211 -5.904,-10.117 -10.358,-14.071c-0.97,-1.094 -2.058,-1.947 -4.427,-1.781c3.099,5.869 4.842,11.982 5.553,18.165c0.583,5.068 3.315,10.374 0.105,15.491c-1.293,-0.113 -0.85,-0.074 -2.142,-0.188c-6.712,-14.462 -30.358,-17.032 -41.927,-5.827c-4.44,1.688 -6.479,7.072 -12.012,7.076c-0.515,-0.531 -0.887,-0.915 -1.401,-1.445c-0.24,-8.566 2.268,-16.859 2.702,-25.358c1.572,-1.956 1.796,-4.304 2.48,-6.727c-3.932,0.174 -5.918,2.677 -6.795,5.206c-2.773,7.997 -9.063,9.638 -16.303,10.03l0,-0.001c0.776,-4.322 3.353,-7.843 5.206,-11.687c2.036,-2.602 5.239,-6.694 7.276,-9.296c8.804,-7.353 18.777,-12.234 31.887,-13.837l-9.712,-4.504c-6.861,-6.572 -10.193,-14.297 -7.808,-23.891c2.049,-5.371 5.728,-9.411 10.354,-12.677c17.755,-6.42 25.556,3.821 25.976,4.23"
        style="fill:#cc4b31;fill-rule:nonzero;"/><path
        d="M465.77,364.626c-11.416,4.029 -23.185,6.338 -35.25,7.192c0.048,-3.02 2.87,-3.847 4.529,-5.508c9.63,-9.638 12.656,-21.035 9.13,-34.078c-2.182,-8.07 -7.786,-13.876 -13.839,-19.257c1.099,-0.263 2.191,-0.529 3.282,-0.796c0.649,0.062 1.296,0.125 1.945,0.189c9.643,1.354 19.248,2.917 28.799,6.216c-0.084,-3.576 -2.359,-4.651 -3.769,-6.319c-4.542,-5.372 -11.39,-6.044 -17.352,-8.522c-0.816,-0.058 -1.631,-0.116 -2.447,-0.173c-3.154,-2.683 -1.897,-6.53 -2.6,-9.861c3.264,-0.865 6.389,-0.098 9.524,0.546c2.145,0.44 4.202,1.206 6.073,2.342c3.66,2.219 8.371,5.057 11.085,6.722c1.374,0.844 2.643,1.836 3.788,2.971l0.989,0.979c1.729,1.712 3.226,3.643 4.484,5.727c4.747,7.861 8.541,16.193 9.296,26.351l4.522,-9.323c1.409,-1.584 2.748,-3.088 4.156,-4.671c6.542,-4.269 13.493,-5.609 20.942,-3.389c1.585,0.473 3.101,1.203 4.468,2.134c0.2,0.137 0.399,0.276 0.597,0.417c3.77,2.695 6.369,6.74 7.614,11.205c0.833,2.986 1.807,5.96 1.207,9.253c-1.57,8.606 -6.162,13.946 -14.615,16.458c-6.098,1.812 -12.782,1.381 -18.451,-1.504c-3.091,-1.573 -6.073,-3.978 -7.308,-8.117c-1.761,-4.417 -0.426,-4.066 -2.979,-5.521c-3.378,21.544 -14.885,36.136 -35.085,43.589c-3.437,-0.008 -6.764,1.812 -10.273,0.622c0.833,-3.249 -0.984,-7.175 2.487,-9.752c8.904,-0.641 15.907,-4.986 21.931,-11.243c1.039,-1.63 3.261,-2.51 3.102,-4.897c0.09,-0.131 0.179,-0.261 0.269,-0.392c-0.083,0.137 -0.167,0.273 -0.25,0.41"
        style="fill:#f0a53b;fill-rule:nonzero;"/><path
        d="M430.52,371.817c-5.26,2.211 -7.861,7.628 -13.012,10.253c-15.46,7.879 -29.637,5.365 -40.62,-7.912c-1.19,-1.437 -2.212,-3.037 -4.156,-3.585c-1.019,0.4 -1.622,1.148 -1.851,2.21c0.047,0.245 0.709,5.889 0.872,8.013c0.713,6.683 3.218,13.142 2.887,20.64c-5.154,-2.345 -5.909,-7.099 -8.079,-10.775c-2.354,0.303 -9.773,-2.012 -13.103,-0.996c1.668,5.723 5.032,10.573 8.012,15.62c1.371,1.549 3.52,3.976 4.891,5.526c8.726,6.694 22.156,11.718 33.267,14.445c-1.495,0.9 -7.14,1.749 -8.507,2.57c-4.692,2.82 -8.572,7.019 -10.253,12.229c-1.553,4.807 -1.452,9.928 0.57,15.411c2.346,4.149 5.791,7.272 9.483,10.163c8.13,3.517 16.325,4.956 24.704,0.805c3.594,-3.048 6.71,-6.493 8.909,-10.704c2.596,-9.88 -0.118,-18.127 -7.647,-24.895c-1.663,-1.453 -5.834,-4.738 -9.31,-6.213c22.584,-2.934 33.601,-13.891 40.928,-34.744c-3.438,-0.008 -6.764,1.812 -10.274,0.619c-2.652,3.02 -10.685,14.653 -14.62,16.572c3.671,-10.109 6.341,-19.506 6.423,-29.434c0.012,-1.645 1.346,-5.906 1.346,-5.906c-0.288,0.022 -0.572,0.068 -0.861,0.088"
        style="fill:#6db04d;fill-rule:nonzero;"/><path
        d="M371.642,312.367c-9.538,0.47 -18.993,1.502 -28.437,3.917c4.549,-5.211 9.604,-9.797 16.914,-10.305c4.627,-0.321 6.479,-2.166 6.856,-6.788c0.125,-1.527 -3.319,-7.173 -3.32,-7.174c-2.468,1.317 -5.368,1.897 -8.491,2.159c-4.19,1.745 -10.452,4.352 -14.642,6.097l-7.094,5.68c-5.545,6.703 -10.59,13.659 -12.871,22.288c-0.834,3.155 -2.597,4.491 -4.89,0.827c-7.284,-5.442 -15.069,-9.355 -24.565,-8.06c-5.439,2.077 -9.845,5.535 -13.449,10.065c-3.901,8.677 -3.078,16.937 2.193,24.803c3.319,3.107 7.396,5.054 11.246,7.348c9.229,2.833 17.543,1.416 24.712,-5.321c0.921,-1.571 1.688,-3.274 4.053,-4.481c2.863,11.601 9.445,20.795 18.236,28.557c1.375,0.874 2.735,1.739 4.11,2.613c3.752,1.691 7.502,3.381 11.254,5.073c4.389,4.281 10.75,1.3 13.106,0.996c0.614,-6.623 -2.163,-9.36 -9.027,-10.218c-7.639,-0.955 -12.757,-6.783 -18.807,-14c10.225,2.822 18.713,4.972 27.361,6.332c1.598,0.004 3.196,0.008 4.793,0.01c0.227,-1.063 0.83,-1.812 1.849,-2.211c-2.795,-3.579 -6.859,-6.19 -8.248,-10.839c-6.862,-10.776 -6.377,-24.29 1.232,-34.292c1.212,-3.391 3.906,-5.592 6.49,-7.814c1.67,-1.437 2.857,-2.844 2.061,-5.159c-0.875,-0.033 -1.75,-0.068 -2.625,-0.103"
        style="fill:#5877b1;fill-rule:nonzero;"/></g></svg>
